<?xml version="1.0" encoding="UTF-8" ?>
<!DOCTYPE svg PUBLIC "-//W3C//DTD SVG 1.1//EN" "http://www.w3.org/Graphics/SVG/1.1/DTD/svg11.dtd">
<svg width="16pt" height="19pt" viewBox="0 0 16 19" version="1.1" xmlns="http://www.w3.org/2000/svg">
<g id="#ffcf00ff">
<path fill="#ffcf00" opacity="1.00" d=" M 8.70 0.46 C 9.74 1.61 11.55 2.44 11.74 4.12 C 12.14 8.68 4.24 8.94 5.61 13.84 C 4.96 14.77 4.31 15.70 3.65 16.63 C 3.21 16.38 2.34 15.89 1.90 15.64 C 2.61 15.10 4.02 14.04 4.72 13.51 C 3.19 13.07 1.59 13.02 0.00 13.02 L 0.00 12.35 C 0.80 12.35 2.39 12.36 3.19 12.36 C 3.58 11.96 3.97 11.56 4.36 11.16 C 4.02 9.15 3.86 7.11 3.40 5.12 C 4.22 3.86 4.62 1.71 6.61 2.17 C 5.76 3.72 4.91 5.28 4.15 6.87 C 6.12 5.08 7.64 2.89 8.70 0.46 Z" />
<path fill="#ffcf00" opacity="1.00" d=" M 6.74 11.13 C 8.56 9.74 10.41 8.41 12.28 7.09 C 12.01 8.84 11.34 10.40 10.26 11.79 C 11.31 13.45 14.42 14.48 13.16 16.84 C 10.66 15.15 10.30 11.30 6.74 11.13 Z" />
<path fill="#ffcf00" opacity="1.00" d=" M 12.74 12.97 C 13.51 11.93 14.60 11.54 16.00 11.80 L 16.00 12.42 C 15.18 12.56 13.55 12.83 12.74 12.97 Z" />
<path fill="#ffcf00" opacity="1.00" d=" M 7.97 18.07 C 6.49 17.20 6.75 14.14 7.98 13.15 C 9.13 14.22 9.54 17.22 7.97 18.07 Z" />
</g>
</svg>
